<?xml version="1.0" encoding="utf-8"?>
<!-- Generator: Adobe Illustrator 16.0.0, SVG Export Plug-In . SVG Version: 6.00 Build 0)  -->
<!DOCTYPE svg PUBLIC "-//W3C//DTD SVG 1.1//EN" "http://www.w3.org/Graphics/SVG/1.1/DTD/svg11.dtd" [
	<!ENTITY ns_flows "http://ns.adobe.com/Flows/1.0/">
	<!ENTITY ns_extend "http://ns.adobe.com/Extensibility/1.0/">
	<!ENTITY ns_ai "http://ns.adobe.com/AdobeIllustrator/10.0/">
	<!ENTITY ns_graphs "http://ns.adobe.com/Graphs/1.0/">
	<!ENTITY ns_vars "http://ns.adobe.com/Variables/1.0/">
	<!ENTITY ns_imrep "http://ns.adobe.com/ImageReplacement/1.0/">
	<!ENTITY ns_sfw "http://ns.adobe.com/SaveForWeb/1.0/">
	<!ENTITY ns_custom "http://ns.adobe.com/GenericCustomNamespace/1.0/">
	<!ENTITY ns_adobe_xpath "http://ns.adobe.com/XPath/1.0/">
]>
<svg version="1.1" xmlns:x="&ns_extend;" xmlns:i="&ns_ai;" xmlns:graph="&ns_graphs;"
	 xmlns="http://www.w3.org/2000/svg" xmlns:xlink="http://www.w3.org/1999/xlink" xmlns:a="http://ns.adobe.com/AdobeSVGViewerExtensions/3.0/"
	 x="0px" y="0px" width="750.707px" height="750.709px" viewBox="0 0 750.707 750.709" enable-background="new 0 0 750.707 750.709"
	 xml:space="preserve">
<metadata>
	<sfw  xmlns="&ns_sfw;">
		<slices></slices>
		<sliceSourceBounds  width="4216.612" height="1410.985" x="-1655.601" y="-660.631" bottomLeftOrigin="true"></sliceSourceBounds>
	</sfw>
</metadata>
<g id="AG-ANIMALS">
	<g id="POLYLINE_108_">
		
			<path fill="none" stroke="#FB8604" stroke-width="3.025" stroke-linecap="round" stroke-linejoin="round" stroke-miterlimit="10" d="
			M232.955,372.706c-1.835,8.459-5.951,16.862-11.448,23.54c-2.606,3.165-5.638,5.833-9.091,8.042
			c-3.936,2.519-8.247,4.458-12.423,6.535c-4.082,2.027-8.128,4.217-11.899,6.784c-3.481,2.37-6.538,5.104-8.588,8.833
			c-2.159,3.927-3,8.476-4.658,12.616c-1.779,4.439-3.852,8.757-5.659,13.187c-3.397,8.331-5.757,17.123-7.854,25.859
			c-1.208,5.029-2.104,10.267-3.77,15.174c-0.293,0.863-0.662,1.678-1.279,2.358c-0.68,0.748-1.384,1.285-1.789,2.23
			c-0.562,1.312-0.73,2.809-0.906,4.211c-0.278,2.219-0.437,4.464-0.494,6.699c-0.059,2.286,0.043,4.629,1.943,6.186
			c1.968,1.612,4.986,2.397,7.489,2.464c2.202,0.059,4.143-0.423,5.635-2.134c0.812-0.932,1.297-2.189,2.276-2.962
			c0.736-0.58,1.509-0.805,2.055-1.621c1.011-1.512,1.566-3.393,2.231-5.066c0.782-1.968,1.702-3.881,2.682-5.757
			c2.181-4.177,4.098-8.357,5.442-12.886c1.394-4.694,2.576-9.451,4.081-14.112c2.218-6.868,5.821-14.281,13.376-16.275
			c4.225-1.115,8.688-0.748,13.001-0.574c4.464,0.179,8.931,0.25,13.384-0.172c9.484-0.898,18.792-3.205,27.973-5.664
			c9.265-2.481,18.371-5.566,27.748-7.621c8.805-1.931,17.625-2.274,26.563-1.126c9.688,1.245,19.294,2.676,29.09,2.165
			c9.545-0.499,19.05-2.198,28.618-2.198c9.35,0,18.406,2.419,27.701,2.979c8.846,0.533,17.793-0.277,26.21-3.141
			c8.268-2.813,16.119-7.629,21.865-14.254c4.259-4.911,7.33-10.818,9.277-16.996"/>
	</g>
	<g id="POLYLINE_107_">
		
			<path fill="none" stroke="#FB8604" stroke-width="3.025" stroke-linecap="round" stroke-linejoin="round" stroke-miterlimit="10" d="
			M431.339,436.229c-0.5,9.443-1.082,18.957-2.365,28.331c-0.641,4.677-1.544,9.279-2.748,13.844
			c-1.181,4.475-2.72,8.842-4.086,13.26c-1.005,3.25-2.362,6.888-2.038,10.351c0.231,2.473,1.558,4.646,1.631,7.168
			c0.189,6.479-1.184,15.134,3.875,20.267c1.661,1.684,3.935,2.541,6.226,2.966c4.42,0.819,8.988,0.525,13.441,0.158
			c2.35-0.191,4.691-0.471,7.041-0.66c1.467-0.118,3.028,0.118,4.469-0.201c1.567-0.348,2.631-1.767,3.318-3.131
			c2.257-4.477-0.299-8.609-4.07-11.221c-1.831-1.268-3.896-2.036-6.138-1.967c-0.994,0.031-2.504,0.611-3.439,0.113
			c-0.824-0.437-1.192-1.832-1.517-2.604c-1.06-2.523-0.698-5.522-0.118-8.108c1.017-4.531,2.812-8.884,4.519-13.188
			c1.743-4.394,3.536-8.818,5.521-13.11c1.939-4.191,4.439-8.024,7.094-11.791c5.404-7.673,11.468-14.99,18.127-21.605
			c6.627-6.582,14.199-11.994,22.256-16.686c8.228-4.79,16.923-8.66,25.357-13.054c2.86-1.49,5.588-3.179,8.333-4.868"/>
	</g>
	<g id="POLYLINE_106_">
		
			<path fill="none" stroke="#FB8604" stroke-width="3.025" stroke-linecap="round" stroke-linejoin="round" stroke-miterlimit="10" d="
			M484.446,441.023c3.574-0.591,6.868-0.941,10.374,0.132c4.352,1.332,8.469,3.324,12.812,4.691
			c2.261,0.711,4.566,1.266,6.847,1.908c1.395,0.393,2.826,0.78,4.088,1.516c1.671,0.973,3.171,2.261,4.778,3.337
			c1.943,1.304,3.923,2.546,5.923,3.759c8.535,5.173,17.33,9.931,26.025,14.822c8.368,4.708,16.771,9.354,24.986,14.325
			c3.715,2.248,7.589,4.613,10.748,7.623c1.088,1.038,1.935,2.311,3.074,3.291c1.337,1.149,2.936,1.989,4.452,2.871
			c1.881,1.093,3.789,2.157,5.538,3.458c1.715,1.274,3.223,2.786,4.867,4.146c1.376,1.136,2.831,1.952,4.447,2.708
			c1.169,0.546,2.38,1.075,3.373,1.918c1.57,1.333,2.651,3.713,4.77,4.286c2.553,0.691,5.277-0.841,7.71-1.337
			c0.694-0.142,1.645-0.349,2.273,0.112c0.753,0.707,0.808,1.867,1.616,2.544c0.532,0.46,1.269,0.56,1.946,0.602
			c1.906,0.117,3.857-0.245,5.741-0.468c2.667-0.318,6.132-0.447,8.294-2.297c1.604-1.373,1.936-3.694,1.819-5.692
			c-0.137-2.349-0.606-4.746-2.413-6.39c-2.574-2.343-6.303-3.502-9.542-4.564c-1.684-0.553-3.492-1.224-5.272-1.376
			c-0.968-0.083-1.27-0.015-2.039-0.729c-2.857-2.648-5.723-5.284-8.611-7.898c-8.056-7.292-16.196-14.499-24.094-21.963
			c-3.249-3.07-6.413-6.278-9.246-9.739c-2.723-3.326-4.865-6.954-8-9.937c-3.433-3.266-6.842-6.511-9.551-10.426
			c-2.496-3.605-4.161-7.669-5.421-11.85c-1.316-4.362-2.236-8.873-2.935-13.373c-0.727-4.687-1.468-9.387-1.931-14.107
			c-0.564-5.739-1.155-12.656,3.493-16.94c2.709-2.496,6.37-3.877,9.952-4.509c1.875-0.329,3.78-0.042,5.662-0.285
			c2.261-0.293,4.469-0.931,6.72-1.287c4.164-0.661,8.261-0.591,12.433-0.019c4.345,0.597,8.729,1.835,13.127,1.889
			c1.906,0.023,3.613-0.43,5.164-1.551c1.609-1.164,2.888-2.698,4.406-3.966c1.464-1.221,3.14-2.151,4.594-3.388
			c2.252-1.917,4.494-4.473,5.27-7.405c0.565-2.135,0.14-4.433-0.776-6.408c-0.957-2.064-2.661-3.508-3.805-5.438
			c-0.63-1.063-0.942-2.354-1.212-3.545c-0.457-2.012-0.751-4.078-0.917-6.134c-0.162-2.011-0.047-3.95-0.006-5.96
			c0.019-0.966-0.148-1.898-0.484-2.804c-1.379-3.717-4.127-7.104-6.565-10.176c-5.662-7.135-12.37-13.004-20.695-16.811
			c-1.694-0.774-3.282-1.268-5.084-1.665"/>
	</g>
	<g id="POLYLINE_105_">
		
			<path fill="none" stroke="#FB8604" stroke-width="3.025" stroke-linecap="round" stroke-linejoin="round" stroke-miterlimit="10" d="
			M173.488,442.285c-1.768,1.088-3.509,2.243-5.413,3.086c-1.879,0.83-3.875,1.353-5.894,1.709
			c-4.523,0.798-9.154,0.943-13.738,0.877c-8.564-0.121-17.621-1.294-25.521-4.765c-8.406-3.693-14.808-10.085-20.689-16.978
			c-3.142-3.682-6.179-7.451-9.072-11.333c-1.354-1.815-2.661-3.683-3.819-5.631c-0.57-0.958-1.272-2.075-1.422-3.213
			c-0.334-2.536,4.1-1.7,5.437-1.668c3.612,0.086,7.302,0.284,10.508,2.132c3.711,2.139,6.578,5.576,9.99,8.138
			c3.572,2.681,7.532,4.833,11.636,6.582c7.033,2.997,14.939,5.062,22.51,2.937c8.405-2.36,15.779-7.835,22.317-13.445
			c7.252-6.221,13.863-13.132,20.237-20.238c6.305-7.028,12.419-14.258,18.262-21.675c3.048-3.87,6.079-7.753,8.912-11.784
			c2.654-3.777,4.966-7.809,7.866-11.407c5.65-7.01,12.957-13.168,20.823-17.534c8.056-4.47,17.229-6.71,26.237-8.312
			c9.83-1.748,19.702-3.144,29.616-4.318c4.416-0.523,8.824-0.888,13.275-0.726c4.18,0.151,8.36,0.36,12.534,0.624
			c9.976,0.633,19.962,1.173,29.929,1.946c10.013,0.778,20.035,1.509,30.001,2.785c9.476,1.214,18.944,3.447,28.529,3.505
			c9.511,0.057,19.004-1.556,28.458-2.369c9.037-0.776,18.076-0.434,27.094,0.418c5.269,0.498,10.534,1.037,15.812,1.44
			c4.319,0.331,8.935,0.659,13.223-0.135c1.732-0.321,3.379-0.854,4.939-1.676c1.562-0.825,2.936-1.958,4.496-2.784
			c3.126-1.654,7.142-1.379,10.554-1.539c8.861-0.415,17.518-2.282,25.603-5.969c6.667-3.041,13.145-6.8,19.118-11.027"/>
	</g>
	<g id="POLYLINE_104_">
		
			<path fill="none" stroke="#FB8604" stroke-width="3.025" stroke-linecap="round" stroke-linejoin="round" stroke-miterlimit="10" d="
			M577.088,321.525c-2.807-1.09-5.448-2.375-7.24-4.883c-2.029-2.838-3.133-6.476-3.776-9.868c-0.371-1.955-0.398-3.829-0.286-5.808
			c0.108-1.911,0.053-3.838,0.457-5.721c0.632-2.945,2.395-5.271,4.624-7.23c2.329-2.047,5.63-4.452,8.851-4.741
			c2.426-0.217,4.173,1.546,5.518,3.342c2.347,3.133,4.097,6.721,5.929,10.164c0.942,1.771,1.856,3.564,2.899,5.28
			c0.961,1.581,2.18,2.933,3.265,4.422"/>
	</g>
	<g id="POLYLINE_103_">
		
			<path fill="none" stroke="#FB8604" stroke-width="3.025" stroke-linecap="round" stroke-linejoin="round" stroke-miterlimit="10" d="
			M588.877,292.512c3.206-2.59,7.122-4.512,11.17-5.345c1.452-0.298,3.406-0.601,4.42,0.768c1.387,1.87,1.17,5.188,1.115,7.333
			c-0.084,3.259-0.562,6.718-2.237,9.573"/>
	</g>
	<g id="POLYLINE_102_">
		
			<line fill="none" stroke="#FB8604" stroke-width="3.025" stroke-linecap="round" stroke-linejoin="round" stroke-miterlimit="10" x1="619.363" y1="361.799" x2="620.679" y2="395.609"/>
	</g>
	<g id="POLYLINE_101_">
		
			<line fill="none" stroke="#FB8604" stroke-width="3.025" stroke-linecap="round" stroke-linejoin="round" stroke-miterlimit="10" x1="622.69" y1="361.566" x2="647.989" y2="390.039"/>
	</g>
	<g id="POLYLINE_100_">
		
			<path fill="none" stroke="#FB8604" stroke-width="3.025" stroke-linecap="round" stroke-linejoin="round" stroke-miterlimit="10" d="
			M632.896,358.591c8.22,0.928,15.992,3.452,23.229,7.467"/>
	</g>
	<g id="POLYLINE_99_">
		
			<path fill="none" stroke="#FB8604" stroke-width="3.025" stroke-linecap="round" stroke-linejoin="round" stroke-miterlimit="10" d="
			M632.586,359.903c7.651,1.499,14.909,4.478,21.355,8.899"/>
	</g>
	<g id="POLYLINE_98_">
		
			<path fill="none" stroke="#FB8604" stroke-width="3.025" stroke-linecap="round" stroke-linejoin="round" stroke-miterlimit="10" d="
			M631.595,362.057c5.616,1.046,10.934,3.834,15.23,7.605"/>
	</g>
	<g id="POLYLINE_97_">
		
			<path fill="none" stroke="#FB8604" stroke-width="3.025" stroke-linecap="round" stroke-linejoin="round" stroke-miterlimit="10" d="
			M621.248,362.592c3.685,8.616,7.686,17.162,12.299,25.325c1.067,1.889,2.149,3.767,3.242,5.64"/>
	</g>
	<g id="POLYLINE_96_">
		
			<path fill="none" stroke="#FB8604" stroke-width="3.025" stroke-linecap="round" stroke-linejoin="round" stroke-miterlimit="10" d="
			M276.54,443.985c-2.207,4.329-4.325,8.692-6.417,13.078c-2.036,4.27-4.16,8.518-5.841,12.943
			c-0.809,2.129-1.368,4.196-0.578,6.404c1.379,3.854,4.402,7.279,6.895,10.457c5.983,7.623,12.332,14.979,18.936,22.07
			c6.714,7.209,13.967,13.782,21.386,20.251c0.858,0.749,1.855,1.955,2.972,2.347c1.685,0.591,3.784,0.586,5.548,0.714
			c4.717,0.342,9.476,0.579,14.195,0.137c4.423-0.415,9.852-1.706,12.006-6.102c0.784-1.599,0.891-3.45-0.248-4.908
			c-0.864-1.105-2.126-1.851-3.318-2.545c-1.542-0.896-2.916-1.763-4.232-2.967c-1.473-1.348-2.771-2.022-4.81-1.899
			c-1.97,0.119-3.908,0.664-5.78,1.258c-0.726,0.23-1.427,0.446-2.184,0.236c-1-0.276-1.862-1.08-2.606-1.762
			c-1.608-1.472-3.068-3.11-4.525-4.729c-3.62-4.019-7.14-8.13-10.701-12.201c-1.887-2.158-4.429-4.427-5.312-7.23
			c-0.765-2.427,0.333-5.021,1.428-7.157c1.869-3.647,4.02-7.331,6.871-10.304c1.637-1.706,3.446-3.238,5.084-4.944
			c1.526-1.59,2.93-3.289,4.286-5.024c2.428-3.109,4.73-6.319,7.185-9.407c2.45-3.084,5.063-6.013,7.677-8.957"/>
	</g>
</g>
<g id="X-VPRT" display="none">
	<g id="POLYLINE_64_" display="inline">
		
			<rect x="0.354" y="-750.354" fill="none" stroke="#FF00FF" stroke-width="0.7087" stroke-linecap="round" stroke-linejoin="round" stroke-miterlimit="10" width="749.998" height="750"/>
	</g>
	<g id="POLYLINE_65_" display="inline">
		
			<rect x="750.353" y="-750.354" fill="none" stroke="#FF00FF" stroke-width="0.7087" stroke-linecap="round" stroke-linejoin="round" stroke-miterlimit="10" width="749.998" height="750"/>
	</g>
</g>
<g id="N-NOTE">
</g>
<g id="N-TEXT">
</g>
<g id="D-DIAG-DASH">
</g>
<g id="N-DIMS">
</g>
<g id="D-DIAG-OUTLINE">
	<g id="SPLINE_11_">
		
			<path fill="none" stroke="#FB8604" stroke-width="3.85" stroke-linecap="round" stroke-linejoin="round" stroke-miterlimit="10" d="
			M484.446,441.023c3.062-0.506,6.007-0.934,9.081-0.215c3.045,0.711,5.94,2.024,8.841,3.161c3.237,1.268,6.526,2.286,9.884,3.181
			c1.981,0.529,4.107,0.956,5.94,1.91c1.574,0.819,2.958,2.043,4.415,3.047c3.902,2.688,7.993,5.098,12.094,7.467
			c8.902,5.14,17.917,10.084,26.877,15.122c8.677,4.879,17.656,9.594,25.737,15.434c2.006,1.451,3.886,3.011,5.474,4.915
			c2.42,2.903,6.146,4.362,9.284,6.338c2.55,1.604,4.666,3.664,6.965,5.584c2.308,1.926,5.314,2.601,7.621,4.462
			c2.013,1.622,3.154,4.535,6.098,4.534c1.442-0.001,2.856-0.449,4.223-0.861c1.212-0.365,2.764-1.022,4.054-0.727
			c0.939,0.215,1.113,1.26,1.512,1.991c0.587,1.079,1.631,1.344,2.783,1.379c2.961,0.093,6.124-0.449,9.037-0.961
			c2.49-0.438,5.18-1.233,6.131-3.838c0.813-2.228,0.571-5.03-0.154-7.257c-0.76-2.336-2.73-3.727-4.843-4.785
			c-2.307-1.154-4.764-2.038-7.221-2.813c-1.542-0.485-3.27-1.144-4.908-1.164c-0.366-0.004-0.676,0.106-0.997-0.117
			c-1.001-0.699-1.857-1.688-2.746-2.516c-1.66-1.547-3.342-3.07-5.03-4.588c-3.58-3.218-7.174-6.42-10.751-9.641
			c-7.743-6.974-15.808-13.873-22.672-21.739c-2.21-2.533-4.011-5.318-6.046-7.979c-2.403-3.142-5.597-5.602-8.319-8.452
			c-4.041-4.231-7.127-9.044-9.095-14.562c-2.055-5.764-3.201-11.829-4.138-17.861c-0.935-6.016-2.004-12.163-2.037-18.265
			c-0.026-4.933,1.109-9.467,5.355-12.423c1.865-1.299,3.999-2.201,6.183-2.804c2.327-0.644,4.533-0.562,6.904-0.694
			c2.425-0.134,4.807-0.874,7.191-1.291c3.169-0.553,6.35-0.739,9.559-0.483c3.132,0.249,6.232,0.785,9.325,1.324
			c2.656,0.464,5.401,1.071,8.111,0.92c2.418-0.136,4.236-1.343,5.98-2.953c1.014-0.938,1.964-1.95,3.039-2.82
			c1.083-0.878,2.292-1.581,3.399-2.424c2.443-1.859,4.785-4.372,5.872-7.286c1.083-2.906,0.292-6.13-1.309-8.688
			c-1.307-2.086-3.061-3.471-3.81-5.919c-0.761-2.488-1.111-5.132-1.333-7.717c-0.185-2.164,0.063-4.278-0.009-6.432
			c-0.077-2.302-1.374-4.389-2.571-6.28c-3.062-4.838-6.765-9.391-10.875-13.375c-2.294-2.224-4.802-4.217-7.484-5.954
			c-0.567-0.367-1.141-0.723-1.722-1.066c0.322-0.541,0.596-1.11,0.83-1.694c0.532-1.326,0.868-2.726,1.086-4.136
			c0.389-2.508,0.443-5.098,0.18-7.622c-0.183-1.755-0.533-4.097-2.634-4.418c-2.274-0.347-4.867,0.676-6.939,1.494
			c-2.535,1.002-4.867,2.339-6.991,4.047c-1.476-2.672-3.004-5.661-5.277-7.756c-1.768-1.631-3.79-1.784-5.979-0.945
			c-5.137,1.968-10.497,6.32-11.482,11.972c-0.21,1.203-0.253,2.421-0.288,3.639c-0.015,0.546-0.169,0.599-0.521,0.928
			c-1.112,1.038-2.646,1.758-3.934,2.56c-4.822,3.002-9.774,5.84-14.953,8.185c-5.844,2.644-12.035,4.381-18.391,5.229
			c-2.832,0.379-5.681,0.565-8.534,0.69c-2.432,0.104-4.978,0.092-7.33,0.799c-1.912,0.575-3.452,1.841-5.128,2.87
			c-2.195,1.348-4.595,2.123-7.149,2.426c-6.097,0.722-12.404-0.007-18.483-0.577c-6.367-0.597-12.726-1.317-19.117-1.621
			c-6.742-0.319-13.456-0.081-20.173,0.554c-11.086,1.047-22.208,2.918-33.354,1.635c-4.483-0.517-8.931-1.318-13.392-1.993
			c-5.673-0.859-11.366-1.557-17.076-2.122c-11.214-1.109-22.46-1.902-33.705-2.633c-9.95-0.647-19.935-1.448-29.905-1.654
			c-8.273-0.172-16.573,1.17-24.743,2.307c-12.192,1.694-24.856,3.315-36.406,7.769c-10.701,4.124-20.289,11.585-27.593,20.383
			c-2.235,2.692-4.06,5.668-5.993,8.576c-2.854,4.294-5.94,8.426-9.114,12.488c-7.251,9.285-14.849,18.324-22.797,27.021
			c-7.928,8.675-16.327,17.206-26.037,23.905c-4.119,2.842-8.57,5.423-13.397,6.836c-5.676,1.663-11.441,1.137-17.046-0.54
			c-5.91-1.77-11.687-4.487-16.721-8.064c-2.504-1.778-4.751-3.854-7.053-5.879c-1.963-1.727-4.003-3.323-6.525-4.14
			c-2.81-0.909-5.78-0.945-8.704-1.007c-1.09-0.022-4.246-0.581-4.643,0.964c-0.429,1.671,1.416,4.011,2.27,5.33
			c1.482,2.289,3.111,4.484,4.772,6.647c3.916,5.097,8.027,10.112,12.501,14.732c4.178,4.314,8.851,8.148,14.335,10.678
			c5.962,2.749,12.5,4.127,19.003,4.797c6.504,0.668,13.183,0.739,19.67-0.156c2.493-0.344,4.982-0.864,7.306-1.852
			c2.015-0.856,3.832-2.071,5.694-3.206c-2.466,5.647-4.98,11.249-6.917,17.107c-1.947,5.889-3.554,11.889-5.051,17.904
			c-1.241,4.984-2.205,10.065-3.645,14.996c-0.481,1.646-1.089,2.854-2.34,4.066c-1.731,1.677-1.847,4.642-2.077,6.893
			c-0.273,2.669-0.644,5.57-0.274,8.243c0.337,2.444,1.999,3.885,4.195,4.782c2.285,0.933,5.065,1.51,7.519,0.997
			c2.341-0.488,3.492-2.276,4.767-4.093c0.708-1.009,1.92-1.264,2.644-2.213c0.861-1.127,1.333-2.593,1.849-3.898
			c1.084-2.742,2.298-5.397,3.678-8.005c2.457-4.641,4.283-9.419,5.711-14.474c1.649-5.837,3-11.883,5.583-17.4
			c2.171-4.64,5.455-8.814,10.51-10.387c5.116-1.592,10.694-0.852,15.956-0.677c5.914,0.195,11.787-0.159,17.629-1.099
			c14.774-2.378,28.882-7.278,43.315-11.044c-3.231,6.208-6.233,12.541-9.181,18.887c-1.25,2.69-2.515,5.402-3.461,8.217
			c-0.434,1.29-0.772,2.605-0.551,3.974c0.307,1.9,1.392,3.643,2.424,5.226c1.422,2.18,3.008,4.254,4.608,6.306
			c3.492,4.48,7.145,8.84,10.87,13.129c7.73,8.902,15.874,17.407,24.747,25.18c1.299,1.139,2.613,2.261,3.92,3.39
			c0.851,0.735,1.689,1.486,2.531,2.232c0.385,0.341,0.783,0.744,1.266,0.947c1.061,0.446,2.432,0.468,3.556,0.586
			c2.681,0.282,5.38,0.434,8.074,0.52c5.32,0.17,11.667,0.366,16.436-2.38c1.917-1.104,3.674-2.829,4.286-5.011
			c0.598-2.131-0.37-3.866-2.081-5.136c-2.103-1.562-4.398-2.594-6.356-4.381c-0.887-0.811-1.814-1.502-3.039-1.665
			c-1.401-0.186-2.864,0.066-4.231,0.365c-1.108,0.241-2.189,0.566-3.269,0.908c-0.621,0.198-1.256,0.364-1.906,0.209
			c-1.991-0.475-3.626-2.62-4.967-4.039c-3.744-3.96-7.259-8.137-10.837-12.244c-1.832-2.103-3.75-4.146-5.479-6.337
			c-1.116-1.415-2.184-2.987-2.233-4.853c-0.085-3.21,2-6.378,3.562-9.04c1.543-2.629,3.263-5.166,5.418-7.334
			c1.98-1.992,4.102-3.823,5.972-5.925c1.965-2.21,3.75-4.58,5.532-6.938c3.698-4.895,7.486-9.64,11.574-14.216
			c0.244-0.272,0.487-0.545,0.73-0.819c0.417-0.006,0.833-0.016,1.25-0.029c0.836-0.023,1.672-0.057,2.506-0.099
			c1.811-0.09,3.619-0.217,5.425-0.367c3.401-0.281,6.795-0.644,10.19-0.981c6.399-0.639,12.777-1.122,19.203-0.572
			c5.875,0.503,11.651,1.738,17.509,2.377c14.069,1.533,28.544-0.456,40.799-7.842c-0.262,5.48-0.695,10.953-1.137,16.422
			c-0.512,6.358-1.143,12.733-2.386,18.997c-1.215,6.132-3.122,12.071-5.041,18.01c-1.545,4.782-3.744,10.133-1.99,15.125
			c1.827,5.202,0.509,10.865,1.295,16.262c0.365,2.501,1.046,5.06,2.504,7.16c1.473,2.121,3.663,3.329,6.125,3.959
			c5.542,1.419,11.637,0.725,17.252,0.169c2.294-0.227,4.58-0.517,6.888-0.505c1.032,0.006,2.098,0.02,3.007-0.544
			c1.088-0.671,1.871-1.869,2.395-3.009c1.314-2.86,0.747-5.755-1.203-8.148c-1.785-2.191-4.397-4.105-7.225-4.604
			c-1.19-0.209-2.38-0.137-3.57,0.022c-0.925,0.124-1.825,0.272-2.373-0.64c-0.795-1.324-1.356-2.876-1.527-4.409
			c-0.578-5.192,1.815-10.705,3.631-15.452c1.951-5.1,4.057-10.158,6.25-15.158c2.936-6.695,7.165-12.664,11.614-18.431
			C471.478,454.161,477.642,447.24,484.446,441.023"/>
	</g>
</g>
<g id="X-TEMP">
</g>
</svg>
